<svg width="78" height="88" viewBox="0 0 78 88" fill="none" xmlns="http://www.w3.org/2000/svg">
<path d="M54.2764 68.166H46.9727V78.2029" stroke="#15172F" stroke-width="0.915416" stroke-linecap="round" stroke-linejoin="round"/>
<path d="M63.0865 20.9462L52.5788 18.9584C52.4742 18.4288 52.3238 17.9122 52.1211 17.4088C49.9633 11.9947 46.5959 10.6543 46.5959 10.6543L38.0499 14.8325L38.3376 16.2645L30.7462 14.8325C15.0141 19.1938 3.4668 33.6181 3.4668 50.7364C3.4668 71.3136 20.147 87.9938 40.7242 87.9938C61.3014 87.9938 77.9816 71.3136 77.9816 50.7364C77.9816 38.5548 72.136 27.7333 63.093 20.9396L63.0865 20.9462Z" fill="white"/>
<path d="M23.498 55.7336C20.198 57.5669 14.3313 59.0336 5.53125 68.2003C6.50904 72.1114 21.298 86.5336 36.698 86.5336C57.9646 86.5336 71.1646 69.6669 70.0646 66.3669C69.3313 64.1669 57.2313 56.1003 48.0646 54.6336V48.7669H42.5646L38.898 54.6336L36.698 46.9336H24.2313C23.8646 49.8669 23.9513 55.4818 23.498 55.7336Z" fill="#15172F"/>
<path d="M0.533203 74.5545C0.533203 74.5545 9.92927 58.6786 27.8126 54.5723" stroke="#15172F" stroke-width="1.02667" stroke-linecap="round" stroke-linejoin="round"/>
<path d="M23.6035 55.8006L24.2508 46.8164H36.6613L39.1263 54.5713L42.6834 48.7322H48.0647V54.5713C48.0647 54.5713 64.8495 57.8537 75.0695 71.1795" stroke="#15172F" stroke-width="1.02667" stroke-linecap="round" stroke-linejoin="round"/>
<path d="M35.1094 34.2239C35.1094 34.2239 37.5744 38.5132 43.8712 38.5132C50.1679 38.5132 57.7397 27.659 46.2447 11.0508" stroke="#15172F" stroke-width="1.02667" stroke-linecap="round" stroke-linejoin="round"/>
<path d="M30.9128 21.8193C30.9128 21.8193 27.4473 18.6285 25.2568 20.3612C23.0664 22.094 26.9896 27.1156 29.4546 27.5668L28.7223 46.8167" stroke="#15172F" stroke-width="1.02667" stroke-linecap="round" stroke-linejoin="round"/>
<path d="M43.873 38.5137L44.4223 48.2759" stroke="#15172F" stroke-width="0.915416" stroke-linecap="round" stroke-linejoin="round"/>
<path d="M60.1536 19.4782C69.1966 26.2784 75.0422 37.0934 75.0422 49.275C75.0422 69.8522 58.362 86.5324 37.7847 86.5324C17.2075 86.5324 0.527344 69.8522 0.527344 49.275C0.527344 32.1567 12.0746 17.7324 27.8067 13.3711" stroke="#15172F" stroke-width="1.02667" stroke-linecap="round" stroke-linejoin="round"/>
<path d="M46.292 13.7447C48.1032 11.9662 49.8948 7.4022 49.2148 3.34167C48.5282 -0.718847 41.231 -1.71924 32.5607 3.98249C23.8905 9.68422 25.4924 17.8968 25.4924 17.8968C25.4924 17.8968 21.7 16.5629 21.8438 21.3623C21.9158 23.8927 24.3089 27.8879 29.2522 33.1254L29.4614 27.5675C29.4614 27.5675 26.4078 26.5605 25.5251 24.2981C24.6424 22.0358 24.1259 21.4081 25.2636 20.3619C26.4013 19.3157 27.4344 19.5315 28.8468 20.4077L30.2526 21.2838C30.2526 21.2838 37.2163 22.6439 46.292 13.7512V13.7447Z" fill="#15172F"/>
<path d="M44.33 46.7064L35.457 35.4141L36.0717 35.826C36.0717 35.826 38.3471 37.6569 40.5114 38.0623C42.6757 38.4677 43.5585 38.6899 43.5585 38.6899L43.8789 39.6904L44.3366 46.7064H44.33Z" fill="#15172F"/>
<path d="M44.1465 19.8457L46.3369 27.3848" stroke="#15172F" stroke-width="1.02667" stroke-linecap="round" stroke-linejoin="round"/>
</svg>
