<svg width="120" height="120" viewBox="0 0 120 120" fill="none" xmlns="http://www.w3.org/2000/svg">
<g clip-path="url(#clip0_6185_26955)">
<path d="M64.9982 108.997C92.0592 108.997 113.996 87.0592 113.996 59.9983C113.996 32.9373 92.0592 11 64.9982 11C37.9373 11 16 32.9373 16 59.9983C16 87.0592 37.9373 108.997 64.9982 108.997Z" fill="#15172F"/>
<path d="M77.0937 85.618L74.6747 75.09H66.4487L64.8751 66.0187L49.7497 59.4834L39.4688 62.5072L35.4761 59.4834V57.305L38.864 55.0095L40.3141 48.7213L33.1741 47.7524L33.7789 42.069L50.1138 39.65L52.1687 37.231L56.402 27.7955H64.0232L66.3187 31.1834H68.7377L67.7688 22.4697L61.9618 16.6628L51.4338 22.1056L49.379 20.2913L48.4036 13.8926C38.0967 17.5991 29.4025 24.6611 23.6216 33.765L27.1201 51.9922L33.0506 52.9611L33.6553 60.7059L40.3076 64.8222L35.9508 70.2194V75.2266L49.7431 86.1122L46.1146 95.4306L52.7669 102.928L53.1896 107.571C55.7322 108.202 58.3528 108.625 61.0384 108.839L66.9235 95.4306L77.0873 85.631L77.0937 85.618Z" fill="white"/>
<path d="M104.567 31.1188L96.3285 33.837L89.4355 56.7006L96.3285 60.6933L101.166 67.3457L107.097 60.6933L113.652 65.707C113.866 63.8342 113.996 61.9289 113.996 59.9975C113.996 49.1965 110.491 39.2147 104.567 31.1123V31.1188Z" fill="white"/>
<path d="M85.8068 30.45L91.3732 37.1024L93.4281 30.2094L99.287 25.0202C96.5038 22.2956 93.402 19.8961 90.0336 17.8867L88.7071 26.0932L85.8003 30.45H85.8068Z" fill="white"/>
<path d="M64.9982 108.997C92.0592 108.997 113.996 87.0593 113.996 59.9983C113.996 32.9373 92.0592 11 64.9982 11C37.9373 11 16 32.9373 16 59.9983C16 87.0593 37.9373 108.997 64.9982 108.997Z" stroke="#15172F" stroke-miterlimit="10"/>
<path d="M101.013 106.084C89.4151 115.09 74.3786 119.812 58.4774 118.168C25.9243 114.814 2.09666 86.0617 5.25503 53.9715C8.41341 21.8812 37.3589 -1.42929 69.8994 1.93182" stroke="#15172F" stroke-width="1.4" stroke-linecap="round" stroke-linejoin="round"/>
<path d="M98.6814 113.848L102.079 105.21L92.6173 104.884" stroke="#15172F" stroke-width="1.4" stroke-linecap="round" stroke-linejoin="round"/>
</g>
<defs>
<clipPath id="clip0_6185_26955">
<rect width="120" height="120" fill="white"/>
</clipPath>
</defs>
</svg>
