<svg width="120" height="120" viewBox="0 0 120 120" fill="none" xmlns="http://www.w3.org/2000/svg">
<path d="M100.865 56.6391C100.865 29.7789 79.0923 8 52.2255 8C32.398 8 15.3468 19.8716 7.77724 36.8966C3.47516 44.1519 1 52.612 1 61.6615C1 88.5217 22.7723 111.073 49.6391 111.073C69.4666 111.073 86.5178 98.4223 94.0874 81.4039C98.3895 74.1486 100.865 65.6885 100.865 56.6391Z" fill="white"/>
<path d="M61.2555 39.2871H48.7945C43.831 39.2871 39.8105 43.3076 39.8105 48.2711C39.8105 53.2345 43.831 57.255 48.7945 57.255H49.8553C56.148 57.255 61.2489 62.356 61.2489 68.6487C61.2489 74.9414 56.148 80.0423 49.8553 80.0423H39.8105" stroke="#15172F" stroke-width="1.4" stroke-linecap="round" stroke-linejoin="round"/>
<path d="M99.8643 57.1886C110.985 57.1886 120 48.1737 120 37.0533C120 25.9329 110.985 16.918 99.8643 16.918C88.7439 16.918 79.729 25.9329 79.729 37.0533C79.729 48.1737 88.7439 57.1886 99.8643 57.1886Z" fill="#15172F"/>
<path d="M50.5361 29.8184V86.4134" stroke="#15172F" stroke-width="1.4" stroke-linecap="round" stroke-linejoin="round"/>
<path d="M91.5006 27.9462C97.3873 35.9873 100.858 45.9076 100.858 56.6399C100.858 83.5001 79.0854 105.279 52.2187 105.279C25.352 105.279 3.57959 83.5067 3.57959 56.6399C3.57959 33.5121 19.7271 14.1494 41.3619 9.21875" stroke="#15172F" stroke-width="1.4" stroke-linecap="round" stroke-linejoin="round"/>
<path d="M103.977 29.8262H99.1969C97.2914 29.8262 95.7526 31.3715 95.7526 33.2705C95.7526 35.176 97.2979 36.7147 99.1969 36.7147H99.6028C102.019 36.7147 103.977 38.6726 103.977 41.0889C103.977 43.5051 102.019 45.463 99.6028 45.463H95.7461" stroke="white" stroke-width="1.4" stroke-linecap="round" stroke-linejoin="round"/>
<path d="M99.8647 26.1914V47.9179" stroke="white" stroke-width="1.4" stroke-linecap="round" stroke-linejoin="round"/>
<path d="M5.51159 41.9512C2.61734 48.1784 1 55.1194 1 62.4401C1 89.3003 22.7723 111.079 49.6391 111.079C70.606 111.079 88.4757 97.8128 95.3053 79.2163" stroke="#15172F" stroke-width="1.4" stroke-linecap="round" stroke-linejoin="round"/>
<path d="M5.64912 70.6973L1 82.2153" stroke="#15172F" stroke-width="1.4" stroke-linecap="round" stroke-linejoin="round"/>
<path d="M10.2655 83.8066L7.14209 91.5399" stroke="#15172F" stroke-width="1.4" stroke-linecap="round" stroke-linejoin="round"/>
<path d="M17.9857 93.7148L14.8491 101.848" stroke="#15172F" stroke-width="1.4" stroke-linecap="round" stroke-linejoin="round"/>
<path d="M27.1923 101.422L24.7368 107.505" stroke="#15172F" stroke-width="1.4" stroke-linecap="round" stroke-linejoin="round"/>
<path d="M37.0993 92.9673C22.8769 87.0413 12.8779 73.0022 12.8779 56.632C12.8779 53.0764 13.3494 49.6256 14.2334 46.3516" stroke="#15172F" stroke-width="1.4" stroke-linecap="round" stroke-linejoin="round"/>
<path d="M63.5732 18.9551C72.3542 21.594 79.8387 27.2187 84.8545 34.6508" stroke="#15172F" stroke-width="1.4" stroke-linecap="round" stroke-linejoin="round"/>
<path d="M65.8651 108.296C60.0963 110.444 56.7371 110.961 48.146 111.046L67.9408 102.671C67.9408 102.671 76.2176 99.5414 78.9744 97.2562C78.9744 97.2562 88.672 91.5397 95.2987 79.2031C95.2987 79.2031 89.6084 99.4432 65.8651 108.296Z" fill="#15172F"/>
</svg>
