<svg width="120" height="120" viewBox="0 0 120 120" fill="none" xmlns="http://www.w3.org/2000/svg">
<g clip-path="url(#clip0_6185_27763)">
<path d="M83.8863 70.3787C83.5063 64.2196 78.4086 59.2529 72.2429 59.0236C69.7268 58.9253 67.3811 59.6002 65.4089 60.8189C64.4916 61.3824 63.3122 60.7534 63.3122 59.6788V38.9933C63.3122 37.5518 62.1393 36.3789 60.6978 36.3789H46.8725C45.0116 36.3789 43.7536 38.2987 44.5202 39.9892C45.2475 41.5945 45.6341 43.3898 45.5817 45.2769C45.4113 51.4098 40.4971 56.5141 34.3707 56.8941C27.4122 57.3266 21.6331 51.8095 21.6331 44.9427C21.6331 43.1933 22.0066 41.529 22.688 40.0285C23.4612 38.3184 22.2293 36.3855 20.3554 36.3855H5.99279C4.55129 36.3855 3.37842 37.5583 3.37842 38.9998V64.1671C3.37842 94.6025 28.0478 119.272 58.4831 119.272H61.3465C62.4276 119.272 63.3122 118.394 63.3122 117.306V82.638C63.3122 81.57 64.485 80.9279 65.3958 81.4914C67.2501 82.638 69.4386 83.3064 71.7777 83.3064C78.7428 83.3064 84.3319 77.4486 83.8929 70.3918L83.8863 70.3787Z" fill="white"/>
<path d="M60.9272 94.3912V80.2514C60.9272 79.1834 62.1001 78.5412 63.0109 79.1047C64.8652 80.2514 67.0536 80.9197 69.3928 80.9197C76.3579 80.9197 81.947 75.062 81.508 68.0052C81.1279 61.846 76.0302 56.8794 69.8645 56.6501C67.3485 56.5518 65.0028 57.2267 63.0305 58.4454C62.1132 59.0089 60.9338 58.3799 60.9338 57.3053" stroke="#15172F" stroke-width="1.6" stroke-linecap="round" stroke-linejoin="round"/>
<path d="M58.3194 34H44.4941C42.6332 34 41.3752 35.9198 42.1418 37.6103C42.8691 39.2156 43.2557 41.0109 43.2033 42.898C43.0329 49.0309 38.1187 54.1352 31.9923 54.5152C25.0338 54.9476 19.2547 49.4306 19.2547 42.5638C19.2547 40.8144 19.6281 39.1501 20.3096 37.6496C21.0828 35.9395 19.8509 34.0065 17.977 34.0065H3.61437C2.17287 34.0065 1 35.1794 1 36.6209V61.7882C1 86.5166 17.289 107.438 39.7175 114.416" stroke="#15172F" stroke-width="1.6" stroke-linecap="round" stroke-linejoin="round"/>
<path d="M112.409 32.4052C110.63 32.4457 108.983 31.8776 107.654 30.8914C107.073 30.4612 106.258 30.8914 106.258 31.626V41.0411C106.258 42.2221 105.319 43.1758 104.165 43.1758H95.8138C95.1692 43.1758 94.7395 43.8697 95.0379 44.4541C95.6347 45.6391 95.953 46.9946 95.8894 48.4312C95.7183 52.4367 92.5552 55.7279 88.6322 55.9836C84.1124 56.2758 80.3605 52.6234 80.3605 48.0781C80.3605 46.7714 80.6709 45.5417 81.2199 44.4582C81.5143 43.8738 81.0846 43.1798 80.4441 43.1798H72.0928C70.935 43.1798 70 42.2221 70 41.0452V2.13464C70 0.953687 70.939 0 72.0928 0H79.2147C79.9627 0 80.5396 0.673672 80.4361 1.42851C80.3685 1.92767 80.3486 2.44713 80.3764 2.97064C80.6032 6.95991 83.7862 10.2024 87.6972 10.4216C92.1852 10.6732 95.9013 7.03295 95.9013 2.51206C95.9013 2.1387 95.8735 1.7694 95.8257 1.40821C95.7223 0.661496 96.3111 0 97.0511 0H104.173C105.331 0 106.266 0.957745 106.266 2.13464V17.349C106.266 18.0795 107.081 18.5178 107.658 18.0836C108.939 17.1299 110.523 16.5658 112.234 16.5658C116.69 16.5658 120.267 20.3927 119.984 24.9988C119.734 29.0652 116.408 32.3159 112.417 32.4092L112.409 32.4052Z" fill="#15172F"/>
</g>
<defs>
<clipPath id="clip0_6185_27763">
<rect width="120" height="120" fill="white"/>
</clipPath>
</defs>
</svg>
