<?xml version="1.0" standalone="no"?>
<!DOCTYPE svg PUBLIC "-//W3C//DTD SVG 20010904//EN"
 "http://www.w3.org/TR/2001/REC-SVG-20010904/DTD/svg10.dtd">
<svg version="1.0" xmlns="http://www.w3.org/2000/svg"
 width="1147.000000pt" height="516.000000pt" viewBox="0 0 1147.000000 516.000000"
 preserveAspectRatio="xMidYMid meet">
<metadata>
Created by potrace 1.16, written by Peter Selinger 2001-2019
</metadata>
<g transform="translate(0.000000,516.000000) scale(0.100000,-0.100000)"
fill="#000000" stroke="none">
<path d="M3171 4493 c-8 -21 -209 -555 -449 -1188 -239 -632 -436 -1158 -439
-1168 -5 -16 14 -17 337 -15 l343 3 453 1200 c250 660 454 1201 454 1203 0 1
-154 2 -343 2 l-343 0 -13 -37z"/>
<path d="M6720 4515 c0 -11 354 -685 359 -685 6 0 351 672 351 683 0 4 -160 7
-355 7 -195 0 -355 -2 -355 -5z"/>
<path d="M8385 3320 c0 -663 1 -934 2 -602 2 331 2 873 0 1205 -1 331 -2 60
-2 -603z"/>
</g>
</svg>
